<mxfile host="app.diagrams.net" modified="2024-02-22T08:13:18.188Z" agent="Mozilla/5.0 (Windows NT 10.0; Win64; x64) AppleWebKit/537.36 (KHTML, like Gecko) Chrome/120.0.0.0 Safari/537.36 OPR/106.0.0.0" version="23.1.5" etag="i47ggbjp59vRlgSKVRVg" type="github">
  <diagram name="PÃ¡gina-1" id="K_0XEcPfIA9sb1Hyq9cF">
    <mxGraphModel>
      <root>
        <mxCell id="0" />
        <mxCell id="1" parent="0" />
      </root>
    </mxGraphModel>
  </diagram>
</mxfile>
